<svg width="25" height="25" viewBox="0 0 25 25" fill="none" xmlns="http://www.w3.org/2000/svg">
<path d="M21.3547 15.652C21.3545 15.6495 21.3544 15.6471 21.3542 15.6447C21.279 14.6016 21.0867 13.7159 20.7494 12.8605C20.7449 12.8476 20.74 12.8348 20.7347 12.822C20.7154 12.7756 18.82 8.15142 19.7075 5.61015C19.7876 5.38088 19.7487 5.12686 19.6038 4.93195C19.459 4.73704 19.2272 4.62692 18.9843 4.63727C18.9193 4.6401 17.5936 4.71366 16.1874 5.95086C14.9567 3.41159 14.7624 0.713927 14.7604 0.684493C14.7437 0.429351 14.5952 0.201446 14.3686 0.0831248C14.1419 -0.0352453 13.8701 -0.0266543 13.6512 0.105432C11.7091 1.27859 10.2087 2.7103 9.1919 4.3609C8.37087 5.69357 7.86459 7.16561 7.68706 8.73615C7.58046 9.67954 7.60579 10.5423 7.68443 11.2671C7.72084 11.6028 7.38545 11.8553 7.07286 11.7275L5.18806 10.9564C5.05959 10.9038 4.91901 10.8819 4.78194 10.904C4.49336 10.9505 4.26854 11.1575 4.19156 11.4254C4.02052 12.0204 3.89244 12.5703 3.79994 13.1066C3.47797 14.9742 3.60971 16.8869 4.18077 18.6382C4.7549 20.3988 5.74565 21.915 7.04591 23.0227C8.58257 24.332 10.4434 24.9985 12.4727 24.9985C13.5924 24.9985 14.7634 24.7956 15.9594 24.3856C17.8565 23.7354 19.3589 22.4474 20.3042 20.6611C21.0899 19.1762 21.463 17.3973 21.3547 15.652Z" fill="#FF641A"/>
<path d="M21.3539 15.6447C21.2787 14.6016 21.0864 13.7159 20.7491 12.8605C20.7446 12.8476 20.7397 12.8348 20.7344 12.822C20.7151 12.7756 18.8197 8.15142 19.7072 5.61015C19.7873 5.38088 19.7484 5.12686 19.6035 4.93195C19.4587 4.73704 19.2269 4.62692 18.9841 4.63727C18.9263 4.63976 17.875 4.69804 16.6559 5.57671C16.4034 5.75869 16.0464 5.65911 15.925 5.37253C14.9281 3.01836 14.7619 0.711682 14.7601 0.684493C14.7434 0.429351 14.5949 0.201446 14.3683 0.0831248C14.1416 -0.0352453 13.8698 -0.0266543 13.6509 0.105432C13.2638 0.339243 12.8946 0.583501 12.543 0.83752V24.9977C13.6413 24.9894 14.7881 24.7869 15.959 24.3856C17.8561 23.7354 19.3585 22.4474 20.3038 20.6611C21.0896 19.1762 21.4627 17.3973 21.3544 15.652C21.3542 15.6495 21.3541 15.6471 21.3539 15.6447Z" fill="#FF001E"/>
<path d="M14.4833 12.6952C14.2982 12.4191 13.9504 12.302 13.6361 12.4107C13.3219 12.5192 13.1202 12.8257 13.1449 13.1572C13.2323 14.3276 13.1152 17.7688 11.4875 18.2151C10.1019 18.5952 9.36279 17.9534 9.29099 17.8868C9.11131 17.6909 8.84758 17.6167 8.58858 17.6788C8.32782 17.7415 8.13072 17.9508 8.06116 18.2098C8.04735 18.2612 7.92483 18.7204 7.87318 19.0196C7.54204 20.9407 8.17001 22.8444 9.51211 23.9878C10.2993 24.6585 11.2488 25 12.281 25C12.8441 25 13.432 24.8982 14.0312 24.6928C14.9966 24.3619 15.8221 23.6619 16.4185 22.6683C16.9173 21.8374 17.2073 20.8677 17.2144 20.0081C17.2322 17.7964 16.39 15.541 14.4833 12.6952Z" fill="#FFEB00"/>
<path d="M13.6349 12.4107C13.3207 12.5192 13.119 12.8257 13.1438 13.1572C13.2061 13.9927 13.1641 15.9851 12.543 17.2195V24.9919C13.0252 24.9652 13.5235 24.8666 14.03 24.6929C14.9955 24.3619 15.821 23.6619 16.4173 22.6684C16.9162 21.8374 17.2062 20.8677 17.2132 20.0081C17.2311 17.7963 16.3888 15.5409 14.4822 12.6952C14.297 12.4191 13.9492 12.302 13.6349 12.4107Z" fill="#FFBB00"/>
</svg>
