<svg width="32" height="36" viewBox="0 0 32 36" fill="none" xmlns="http://www.w3.org/2000/svg">
<path fill-rule="evenodd" clip-rule="evenodd" d="M9.62922 0.0918801C9.30783 0.213864 8.97309 0.521546 8.80789 0.846792C8.68909 1.08064 8.66059 1.24925 8.65993 1.7219C8.6592 2.23973 8.6804 2.34525 8.84316 2.63502C8.94446 2.81528 9.10301 3.01468 9.19562 3.07819L9.36398 3.19363L9.33429 4.47243C9.2896 6.40145 9.29836 6.381 7.40202 8.98599C6.08528 10.7948 5.46106 12.1232 5.05938 13.9714C4.91794 14.6221 4.91425 14.7604 4.89187 20.289L4.86897 25.9414L4.36171 26.0972C3.8049 26.2683 2.80941 26.7337 2.62321 26.91C2.45952 27.065 2.47019 27.4459 2.64329 27.6271C2.82573 27.818 3.03424 27.7814 3.80246 27.4237C4.68843 27.0112 5.30527 26.8559 6.22389 26.8138C7.40966 26.7596 8.54804 27.0259 9.4789 27.5753C10.0483 27.9113 10.6977 28.5974 10.9459 29.125C11.1424 29.5426 11.1602 29.6352 11.1602 30.2377C11.1602 30.8394 11.1422 30.9333 10.9473 31.3476C10.4308 32.4454 9.20207 33.2668 7.60606 33.5811C6.83659 33.7326 5.65378 33.6879 4.92136 33.4797C3.72263 33.1389 2.47407 32.4046 1.69722 31.5836C0.831132 30.6683 0.782953 30.0917 1.4876 29.0738C1.73915 28.7103 1.67208 28.3932 1.31331 28.2504C1.06998 28.1537 0.829684 28.2943 0.535414 28.7059C-0.190883 29.7216 -0.17818 30.7747 0.573061 31.8206C1.54387 33.172 3.61067 34.3685 5.4606 34.6497C6.79282 34.8523 8.40311 34.5964 9.58598 33.9942C10.2012 33.681 11.1272 32.9748 11.2579 32.7193C11.328 32.5821 11.3833 32.5796 14.2753 32.5796H17.2212L17.961 33.5044C18.827 34.5869 19.0563 34.8104 19.5489 35.0523L19.9139 35.2314L24.9819 35.2515C28.6304 35.2659 30.1262 35.2495 30.3226 35.1929C30.9442 35.0137 31.3439 34.437 31.3379 33.7276C31.336 33.494 31.0424 30.5752 30.6856 27.2415C29.9936 20.7774 30.0074 20.8644 29.6111 20.4775C29.3774 20.2493 28.9702 20.0945 28.6018 20.0938C28.2197 20.093 28.3049 20.0512 24.9769 21.8768C23.7073 22.5733 22.6501 23.1432 22.6277 23.1432C22.6052 23.1432 22.5758 21.2293 22.5622 18.8899C22.5386 14.8177 22.5314 14.6084 22.3939 13.9714C21.9961 12.1295 21.3696 10.7958 20.0521 8.98599C18.1558 6.381 18.1646 6.40145 18.1199 4.47243L18.0902 3.19363L18.2586 3.07819C18.3512 3.01468 18.5097 2.81528 18.611 2.63502C18.7738 2.34525 18.795 2.23973 18.7942 1.7219C18.7936 1.25132 18.765 1.08029 18.6481 0.850373C18.4698 0.499505 18.1142 0.183351 17.78 0.0785176C17.4206 -0.0341682 9.92896 -0.0219077 9.62922 0.0918801ZM17.6791 1.20221C17.9038 1.43729 17.9051 1.91124 17.6819 2.18297L17.5231 2.37625L15.4619 2.39636C13.462 2.41585 13.3962 2.42081 13.2512 2.56332C13.0049 2.8055 13.0613 3.17614 13.3698 3.3431C13.5197 3.42424 13.9016 3.44387 15.3282 3.44387H17.1004L17.1329 4.66647C17.1841 6.5815 17.3455 6.98183 18.95 9.17107C20.369 11.1073 20.837 11.9802 21.2303 13.424C21.5729 14.6819 21.5918 14.9989 21.592 19.5278L21.5923 23.7301L18.322 25.5197C16.101 26.7351 14.9812 27.3852 14.8321 27.5459C14.4359 27.9729 14.3356 28.6896 14.5967 29.2289C14.6491 29.337 15.0748 29.9027 15.5428 30.486L16.3937 31.5464H14.1813C12.1023 31.5464 11.9715 31.5392 12.013 31.426C12.2494 30.7812 12.2234 29.6144 11.9574 28.929C11.5736 27.9403 10.7166 27.0569 9.57953 26.478C8.70389 26.0322 7.87084 25.8254 6.76399 25.7791L5.8561 25.7411L5.87874 20.2234L5.90138 14.7056L6.07356 13.9747C6.48209 12.2407 7.03226 11.1588 8.55646 9.09193C10.0989 7.00029 10.2704 6.57097 10.321 4.67322L10.3535 3.4573L10.9106 3.4334C11.4303 3.41101 11.4788 3.396 11.6315 3.2103C11.754 3.06118 11.7844 2.96612 11.7522 2.83147C11.664 2.46138 11.5743 2.42377 10.7212 2.39911C9.9487 2.37673 9.92731 2.37191 9.77218 2.18297C9.54906 1.91124 9.55044 1.43722 9.77507 1.20221L9.93659 1.03311H13.7271H17.5176L17.6791 1.20221ZM10.3179 16.9746C9.7446 17.1886 9.26505 17.6768 9.07385 18.241C9.0137 18.4187 8.98822 18.9342 8.98822 19.9748C8.98822 21.388 8.9954 21.4723 9.14527 21.8193C9.23886 22.0361 9.4323 22.3053 9.62442 22.486C10.186 23.0145 10.1784 23.0135 13.5708 22.9909C16.9702 22.9683 16.8049 22.996 17.3715 22.3528C17.8586 21.7997 17.8736 21.7286 17.8736 19.9748C17.8736 18.4931 17.8667 18.4092 17.7181 18.065C17.6325 17.867 17.4298 17.577 17.2677 17.4205C17.0136 17.1755 16.944 17.1419 16.765 17.1781C16.5189 17.2278 16.3269 17.4455 16.3269 17.6748C16.3269 17.7655 16.4288 17.9573 16.5545 18.1028C16.6797 18.2478 16.8129 18.4514 16.8507 18.5552C16.8888 18.6603 16.9192 19.2838 16.9191 19.962C16.919 21.333 16.8701 21.5329 16.4652 21.8159L16.2416 21.9723L13.4376 21.972C10.7727 21.9718 10.6232 21.9651 10.423 21.8373C10.0173 21.5785 9.97549 21.401 9.97549 19.9403C9.97549 18.7554 9.98793 18.6096 10.1071 18.3984C10.3748 17.924 10.4577 17.9084 12.7135 17.9084C14.6534 17.9084 14.7361 17.903 14.9029 17.7656C15.1296 17.579 15.1393 17.2367 14.924 17.025C14.774 16.8776 14.7392 16.8753 12.6698 16.8783C11.0747 16.8805 10.5076 16.9038 10.3179 16.9746ZM29.0393 21.4243C29.1051 21.64 30.346 33.318 30.346 33.7213C30.346 34.2708 30.6911 34.2385 25.0403 34.2171C20.1466 34.1987 20.0409 34.1954 19.8152 34.0575C19.5648 33.9046 15.6694 29.1166 15.4882 28.7391C15.3865 28.527 15.3876 28.5047 15.5082 28.3358C15.6191 28.1805 19.5373 25.9998 27.5663 21.6249C28.5315 21.099 28.5794 21.0809 28.7795 21.1664C28.8991 21.2174 29.0097 21.3273 29.0393 21.4243ZM23.4487 25.1981C23.0131 25.3608 22.6743 25.6406 22.3995 26.0647C22.1209 26.4944 22.0313 26.8628 22.0693 27.4235C22.1453 28.5484 22.9352 29.3451 24.0275 29.3989C24.9028 29.442 25.6322 28.997 26.0133 28.1871C26.233 27.7202 26.234 26.756 26.0152 26.3258C25.5004 25.3136 24.4155 24.8369 23.4487 25.1981ZM24.5935 26.2362C25.0033 26.431 25.1793 26.7368 25.1793 27.2537C25.1793 27.5774 25.1464 27.7256 25.0416 27.8736C24.5426 28.5784 23.6582 28.5554 23.1841 27.8253C22.9792 27.5098 23.0028 26.9324 23.2346 26.5918C23.4084 26.3362 23.829 26.108 24.1263 26.108C24.2348 26.108 24.4451 26.1657 24.5935 26.2362ZM20.9265 28.6756C20.5328 28.8296 20.2964 29.0485 20.117 29.4252C19.6141 30.4815 20.2855 31.6187 21.4092 31.6138C22.2404 31.6102 22.8445 30.957 22.841 30.0655C22.8391 29.5628 22.4894 28.993 22.0305 28.7446C21.7618 28.5992 21.2099 28.5647 20.9265 28.6756ZM21.6821 29.7606C22.0306 30.0474 21.8246 30.5821 21.3657 30.5821C20.9458 30.5821 20.774 30.0352 21.1075 29.7606C21.2029 29.6821 21.3322 29.6178 21.3948 29.6178C21.4575 29.6178 21.5867 29.6821 21.6821 29.7606ZM25.8375 30.8507C25.3405 31.092 24.949 31.7022 24.949 32.2352C24.949 32.5447 25.1375 33.0108 25.3632 33.2593C26.2793 34.2684 27.8581 33.6204 27.8581 32.2352C27.8581 31.1326 26.7793 30.3935 25.8375 30.8507ZM26.7114 31.8603C26.8199 31.9398 26.8577 32.0366 26.8577 32.2352C26.8577 32.5406 26.6852 32.7174 26.3871 32.7174C26.1937 32.7174 25.9362 32.442 25.9362 32.2352C25.9362 32.1696 25.9976 32.0344 26.0727 31.9346C26.2296 31.7257 26.487 31.6958 26.7114 31.8603Z" fill="black"/>
</svg>
