<svg width="21" height="20" viewBox="0 0 21 20" fill="none" xmlns="http://www.w3.org/2000/svg">
<path fill-rule="evenodd" clip-rule="evenodd" d="M0.777344 3.87255C0.777344 1.97462 2.31592 0.436035 4.21386 0.436035H6.50487C8.4028 0.436035 9.94138 1.97462 9.94138 3.87255V9.60008H4.21386C2.31592 9.60008 0.777344 8.06149 0.777344 6.16356V3.87255ZM4.21386 2.07247C3.2197 2.07247 2.41378 2.87839 2.41378 3.87255V6.16356C2.41378 7.15772 3.2197 7.96364 4.21386 7.96364H8.30495V3.87255C8.30495 2.87839 7.49902 2.07247 6.50487 2.07247H4.21386Z" fill="#959595"/>
<path fill-rule="evenodd" clip-rule="evenodd" d="M0.777344 14.0185C0.777344 12.1206 2.31592 10.582 4.21386 10.582H9.94138V16.3096C9.94138 18.2075 8.4028 19.7461 6.50487 19.7461H4.21386C2.31592 19.7461 0.777344 18.2075 0.777344 16.3096V14.0185ZM4.21386 12.2185C3.2197 12.2185 2.41378 13.0244 2.41378 14.0185V16.3096C2.41378 17.3037 3.2197 18.1096 4.21386 18.1096H6.50487C7.49902 18.1096 8.30495 17.3037 8.30495 16.3096V12.2185H4.21386Z" fill="#959595"/>
<path fill-rule="evenodd" clip-rule="evenodd" d="M11.25 3.87255C11.25 1.97462 12.7886 0.436035 14.6865 0.436035H16.6502C18.5482 0.436035 20.0868 1.97462 20.0868 3.87255V6.16356C20.0868 8.06149 18.5482 9.60008 16.6502 9.60008H11.25V3.87255ZM14.6865 2.07247C13.6924 2.07247 12.8864 2.87839 12.8864 3.87255V7.96364H16.6502C17.6444 7.96364 18.4503 7.15772 18.4503 6.16356V3.87255C18.4503 2.87839 17.6444 2.07247 16.6502 2.07247H14.6865Z" fill="#959595"/>
<path fill-rule="evenodd" clip-rule="evenodd" d="M11.25 10.582H16.6502C18.5482 10.582 20.0868 12.1206 20.0868 14.0185V16.3096C20.0868 18.2075 18.5482 19.7461 16.6502 19.7461H14.6865C12.7886 19.7461 11.25 18.2075 11.25 16.3096V10.582ZM12.8864 12.2185V16.3096C12.8864 17.3037 13.6924 18.1096 14.6865 18.1096H16.6502C17.6444 18.1096 18.4503 17.3037 18.4503 16.3096V14.0185C18.4503 13.0244 17.6444 12.2185 16.6502 12.2185H12.8864Z" fill="#959595"/>
</svg>
