<svg xmlns="http://www.w3.org/2000/svg" width="628.169" height="559.571" viewBox="0 0 628.169 559.571">
  <path id="Exclusion_1" data-name="Exclusion 1" d="M378.964,559.571h-129v-.791a14.442,14.442,0,0,1-5.48.79H94.574a21.442,21.442,0,0,1-8.587-1.8A23.339,23.339,0,0,1,73.98,545.76a21.442,21.442,0,0,1-1.8-8.589V333.851H22.207a22.661,22.661,0,0,1-7.181-1.142A20.992,20.992,0,0,1,9.1,329.6a22.671,22.671,0,0,1-7.589-10.238A23.644,23.644,0,0,1,.094,313.2a22.037,22.037,0,0,1,.312-6.268A19.455,19.455,0,0,1,6.7,295.943L304.79,6.463a21.838,21.838,0,0,1,31.017,0l286.03,289.481a21.811,21.811,0,0,1,4.062,5.573,20.984,20.984,0,0,1,1.991,6.137,23.322,23.322,0,0,1-9.183,22.195,20.924,20.924,0,0,1-12.378,4H544.3v203.32a21.444,21.444,0,0,1-1.8,8.587,23.34,23.34,0,0,1-12.006,12.007,21.439,21.439,0,0,1-8.588,1.8H378.964ZM175,424.9a18.02,18.02,0,0,0-18,18v17.828a18.02,18.02,0,0,0,18,18H454a18.02,18.02,0,0,0,18-18V442.9a18.02,18.02,0,0,0-18-18Z" transform="translate(0 0)" fill="green"/>
</svg>
