<svg width="428" height="83" viewBox="0 0 428 83" fill="none" xmlns="http://www.w3.org/2000/svg">
<rect width="428" height="82.0333" fill="white"/>
<rect x="26.1553" width="76.0889" height="59.4444" fill="white"/>
<path fill-rule="evenodd" clip-rule="evenodd" d="M53.1288 25.9636C53.5807 25.9636 53.947 26.33 53.947 26.7818C53.947 27.1623 54.1677 27.5924 54.6984 27.9616C55.2262 28.3287 55.9994 28.5819 56.8926 28.5819C57.7857 28.5819 58.5589 28.3287 59.0867 27.9616C59.6174 27.5924 59.8382 27.1623 59.8382 26.7818C59.8382 26.33 60.2045 25.9636 60.6564 25.9636C61.1083 25.9636 61.4746 26.33 61.4746 26.7818C61.4746 27.8475 60.8527 28.7265 60.0212 29.3049C59.1868 29.8854 58.0781 30.2184 56.8926 30.2184C55.707 30.2184 54.5983 29.8854 53.7639 29.3049C52.9324 28.7265 52.3105 27.8475 52.3105 26.7818C52.3105 26.33 52.6769 25.9636 53.1288 25.9636Z" fill="#11A551"/>
<path fill-rule="evenodd" clip-rule="evenodd" d="M60.6561 25.9636C61.108 25.9636 61.4743 26.33 61.4743 26.7818C61.4743 27.1786 61.6938 27.6094 62.1918 27.9715C62.689 28.3331 63.4163 28.5819 64.2563 28.5819C65.0963 28.5819 65.8235 28.3331 66.3207 27.9715C66.8187 27.6094 67.0382 27.1786 67.0382 26.7818C67.0382 26.33 67.4045 25.9636 67.8564 25.9636C68.3083 25.9636 68.6746 26.33 68.6746 26.7818C68.6746 27.8311 68.0882 28.7095 67.2832 29.295C66.4774 29.881 65.4046 30.2184 64.2563 30.2184C63.108 30.2184 62.0351 29.881 61.2293 29.295C60.4243 28.7095 59.8379 27.8311 59.8379 26.7818C59.8379 26.33 60.2042 25.9636 60.6561 25.9636Z" fill="#11A551"/>
<path fill-rule="evenodd" clip-rule="evenodd" d="M67.8563 25.9636C68.3082 25.9636 68.6745 26.33 68.6745 26.7818C68.6745 27.1623 68.8952 27.5924 69.426 27.9616C69.9537 28.3287 70.727 28.5819 71.6201 28.5819C72.5132 28.5819 73.2865 28.3287 73.8143 27.9616C74.345 27.5924 74.5657 27.1623 74.5657 26.7818C74.5657 26.33 74.932 25.9636 75.3839 25.9636C75.8358 25.9636 76.2021 26.33 76.2021 26.7818C76.2021 27.8475 75.5803 28.7265 74.7488 29.3049C73.9143 29.8854 72.8057 30.2184 71.6201 30.2184C70.4346 30.2184 69.3259 29.8854 68.4914 29.3049C67.6599 28.7265 67.0381 27.8475 67.0381 26.7818C67.0381 26.33 67.4044 25.9636 67.8563 25.9636Z" fill="#11A551"/>
<path fill-rule="evenodd" clip-rule="evenodd" d="M59.3443 20.0725C58.4651 20.0725 57.653 20.5427 57.2154 21.3053L53.8386 27.1891C53.6136 27.5811 53.1136 27.7164 52.7216 27.4915C52.3297 27.2666 52.1943 26.7665 52.4193 26.3746L55.7961 20.4907C56.5255 19.2198 57.8789 18.436 59.3443 18.436H69.2201C70.6951 18.436 72.0559 19.23 72.7816 20.5141L76.0967 26.3792C76.3191 26.7726 76.1804 27.2718 75.787 27.4942C75.3936 27.7165 74.8945 27.5779 74.6721 27.1845L71.357 21.3193C70.9216 20.5489 70.1051 20.0725 69.2201 20.0725H59.3443Z" fill="#11A551"/>
<path fill-rule="evenodd" clip-rule="evenodd" d="M56.0741 28.582C56.526 28.582 56.8923 28.9484 56.8923 29.4002V33.655C56.8923 35.0106 57.9913 36.1096 59.3469 36.1096H69.1656C70.5212 36.1096 71.6202 35.0106 71.6202 33.655V29.4002C71.6202 28.9484 71.9865 28.582 72.4384 28.582C72.8903 28.582 73.2567 28.9484 73.2567 29.4002V33.655C73.2567 35.9144 71.425 37.7461 69.1656 37.7461H59.3469C57.0875 37.7461 55.2559 35.9144 55.2559 33.655V29.4002C55.2559 28.9484 55.6222 28.582 56.0741 28.582Z" fill="#11A551"/>
<rect x="102.244" width="76.0889" height="59.4444" fill="white"/>
<path fill-rule="evenodd" clip-rule="evenodd" d="M130.777 21.8726C130.777 19.9746 132.316 18.436 134.214 18.436H136.505C138.403 18.436 139.941 19.9746 139.941 21.8726V27.6001H134.214C132.316 27.6001 130.777 26.0615 130.777 24.1636V21.8726ZM134.214 20.0725C133.22 20.0725 132.414 20.8784 132.414 21.8726V24.1636C132.414 25.1577 133.22 25.9636 134.214 25.9636H138.305V21.8726C138.305 20.8784 137.499 20.0725 136.505 20.0725H134.214Z" fill="#959595"/>
<path fill-rule="evenodd" clip-rule="evenodd" d="M130.777 32.0185C130.777 30.1206 132.316 28.582 134.214 28.582H139.941V34.3096C139.941 36.2075 138.403 37.7461 136.505 37.7461H134.214C132.316 37.7461 130.777 36.2075 130.777 34.3096V32.0185ZM134.214 30.2185C133.22 30.2185 132.414 31.0244 132.414 32.0185V34.3096C132.414 35.3037 133.22 36.1096 134.214 36.1096H136.505C137.499 36.1096 138.305 35.3037 138.305 34.3096V30.2185H134.214Z" fill="#959595"/>
<path fill-rule="evenodd" clip-rule="evenodd" d="M141.25 21.8726C141.25 19.9746 142.789 18.436 144.687 18.436H146.65C148.548 18.436 150.087 19.9746 150.087 21.8726V24.1636C150.087 26.0615 148.548 27.6001 146.65 27.6001H141.25V21.8726ZM144.687 20.0725C143.692 20.0725 142.886 20.8784 142.886 21.8726V25.9636H146.65C147.644 25.9636 148.45 25.1577 148.45 24.1636V21.8726C148.45 20.8784 147.644 20.0725 146.65 20.0725H144.687Z" fill="#959595"/>
<path fill-rule="evenodd" clip-rule="evenodd" d="M141.25 28.582H146.65C148.548 28.582 150.087 30.1206 150.087 32.0185V34.3096C150.087 36.2075 148.548 37.7461 146.65 37.7461H144.687C142.789 37.7461 141.25 36.2075 141.25 34.3096V28.582ZM142.886 30.2185V34.3096C142.886 35.3037 143.692 36.1096 144.687 36.1096H146.65C147.644 36.1096 148.45 35.3037 148.45 34.3096V32.0185C148.45 31.0244 147.644 30.2185 146.65 30.2185H142.886Z" fill="#959595"/>
<rect x="178.333" width="76.0889" height="59.4444" fill="white"/>
<path fill-rule="evenodd" clip-rule="evenodd" d="M209.889 27.6001C210.34 27.6001 210.707 27.2338 210.707 26.7819C210.707 25.36 210.72 23.6674 211.346 22.3245C211.648 21.6779 212.085 21.1318 212.73 20.74C213.379 20.3456 214.297 20.0725 215.616 20.0725C216.935 20.0725 217.853 20.3456 218.503 20.74C219.148 21.1318 219.585 21.6779 219.886 22.3245C220.512 23.6674 220.525 25.36 220.525 26.7819C220.525 27.2338 220.892 27.6001 221.344 27.6001C221.795 27.6001 222.162 27.2338 222.162 26.7819C222.162 26.7607 222.162 26.7394 222.162 26.7179C222.162 25.3674 222.162 23.3339 221.369 21.633C220.955 20.7441 220.318 19.928 219.352 19.3414C218.391 18.7574 217.161 18.4361 215.616 18.4361C214.071 18.4361 212.842 18.7574 211.88 19.3414C210.914 19.928 210.277 20.7441 209.863 21.633C209.07 23.3339 209.07 25.3674 209.07 26.7179C209.07 26.7394 209.07 26.7607 209.07 26.7819C209.07 27.2338 209.437 27.6001 209.889 27.6001Z" fill="#959595"/>
<path fill-rule="evenodd" clip-rule="evenodd" d="M206.616 25.9636C207.068 25.9636 207.434 26.33 207.434 26.7818V33.6549C207.434 35.0105 208.533 36.1095 209.889 36.1095H221.017C222.372 36.1095 223.471 35.0105 223.471 33.6549V26.7818C223.471 26.33 223.838 25.9636 224.29 25.9636C224.741 25.9636 225.108 26.33 225.108 26.7818V33.6549C225.108 35.9143 223.276 37.746 221.017 37.746H209.889C207.629 37.746 205.798 35.9143 205.798 33.6549V26.7818C205.798 26.33 206.164 25.9636 206.616 25.9636Z" fill="#959595"/>
<path fill-rule="evenodd" clip-rule="evenodd" d="M204.488 26.7818C204.488 26.33 204.855 25.9636 205.306 25.9636H225.926C226.377 25.9636 226.744 26.33 226.744 26.7818C226.744 27.2337 226.377 27.6001 225.926 27.6001H205.306C204.855 27.6001 204.488 27.2337 204.488 26.7818Z" fill="#959595"/>
<path fill-rule="evenodd" clip-rule="evenodd" d="M212.18 28.582C212.631 28.582 212.998 28.9484 212.998 29.4002V33.655C212.998 34.1069 212.631 34.4732 212.18 34.4732C211.728 34.4732 211.361 34.1069 211.361 33.655V29.4002C211.361 28.9484 211.728 28.582 212.18 28.582Z" fill="#959595"/>
<path fill-rule="evenodd" clip-rule="evenodd" d="M215.452 28.582C215.904 28.582 216.27 28.9484 216.27 29.4002V33.655C216.27 34.1069 215.904 34.4732 215.452 34.4732C215 34.4732 214.634 34.1069 214.634 33.655V29.4002C214.634 28.9484 215 28.582 215.452 28.582Z" fill="#959595"/>
<path fill-rule="evenodd" clip-rule="evenodd" d="M218.725 28.582C219.177 28.582 219.544 28.9484 219.544 29.4002V33.655C219.544 34.1069 219.177 34.4732 218.725 34.4732C218.274 34.4732 217.907 34.1069 217.907 33.655V29.4002C217.907 28.9484 218.274 28.582 218.725 28.582Z" fill="#959595"/>
<rect x="330.511" width="76.0889" height="59.4444" fill="white"/>
<path fill-rule="evenodd" clip-rule="evenodd" d="M370.259 20.0725C368.632 20.0725 367.313 21.3913 367.313 23.0181C367.313 24.6449 368.632 25.9636 370.259 25.9636C371.886 25.9636 373.204 24.6449 373.204 23.0181C373.204 21.3913 371.886 20.0725 370.259 20.0725ZM365.677 23.0181C365.677 20.4875 367.728 18.436 370.259 18.436C372.789 18.436 374.841 20.4875 374.841 23.0181C374.841 25.5486 372.789 27.6001 370.259 27.6001C367.728 27.6001 365.677 25.5486 365.677 23.0181Z" fill="#959595"/>
<path fill-rule="evenodd" clip-rule="evenodd" d="M361.422 34.9642C361.422 31.0779 364.572 27.9275 368.459 27.9275H372.059C375.945 27.9275 379.095 31.0779 379.095 34.9642V36.9279C379.095 37.3798 378.729 37.7461 378.277 37.7461C377.825 37.7461 377.459 37.3798 377.459 36.9279V34.9642C377.459 31.9817 375.041 29.5639 372.059 29.5639H368.459C365.476 29.5639 363.058 31.9817 363.058 34.9642V36.9279C363.058 37.3798 362.692 37.7461 362.24 37.7461C361.788 37.7461 361.422 37.3798 361.422 36.9279V34.9642Z" fill="#959595"/>
<rect x="254.422" width="76.0889" height="59.4444" fill="white"/>
<path fill-rule="evenodd" clip-rule="evenodd" d="M297.465 20.9445L290.472 19.9995L282.891 27.5798L290.829 35.5177L298.41 27.9374L297.465 20.9445ZM298.054 19.3729C298.565 19.4419 298.967 19.8438 299.036 20.3547L300.064 27.9592C300.112 28.3135 299.991 28.6698 299.739 28.9226L291.639 37.022C291.192 37.4693 290.467 37.4693 290.019 37.022L281.387 28.3898C280.94 27.9424 280.94 27.2171 281.387 26.7698L289.487 18.6705C289.739 18.4177 290.096 18.2974 290.45 18.3453L298.054 19.3729Z" fill="#959595"/>
<path fill-rule="evenodd" clip-rule="evenodd" d="M294.347 23.8519C294.256 23.8519 294.183 23.9251 294.183 24.0155C294.183 24.1059 294.256 24.1792 294.347 24.1792C294.437 24.1792 294.51 24.1059 294.51 24.0155C294.51 23.9251 294.437 23.8519 294.347 23.8519ZM294.347 25.4883C295.16 25.4883 295.82 24.8289 295.82 24.0155C295.82 23.2021 295.16 22.5427 294.347 22.5427C293.533 22.5427 292.874 23.2021 292.874 24.0155C292.874 24.8289 293.533 25.4883 294.347 25.4883Z" fill="#959595"/>
</svg>
