<svg xmlns="http://www.w3.org/2000/svg" width="599.352" height="548.109" viewBox="0 0 599.352 548.109">
  <path id="noun-coupon-2083213" d="M157.5,105A52.776,52.776,0,0,0,105,157.5v70A17.5,17.5,0,0,0,122.5,245a35,35,0,0,1,0,70A17.5,17.5,0,0,0,105,332.5v70A52.776,52.776,0,0,0,157.5,455h385A52.776,52.776,0,0,0,595,402.5v-70A17.5,17.5,0,0,0,577.5,315a35,35,0,0,1,0-70A17.5,17.5,0,0,0,595,227.5v-70A52.776,52.776,0,0,0,542.5,105Zm0,35h385A17.091,17.091,0,0,1,560,157.5v56.055c-29.859,7.988-52.5,34.184-52.5,66.445s22.641,58.461,52.5,66.445V402.5A17.093,17.093,0,0,1,542.5,420h-385A17.093,17.093,0,0,1,140,402.5V346.445c29.859-7.984,52.5-34.184,52.5-66.445s-22.641-58.457-52.5-66.445V157.5A17.093,17.093,0,0,1,157.5,140Zm279.66,34.828a17.5,17.5,0,0,0-12.031,5.3l-175,175a17.5,17.5,0,1,0,24.742,24.746l175-175a17.5,17.5,0,0,0-12.711-30.043Zm-157.16.2a52.5,52.5,0,1,0,52.5,52.5A52.766,52.766,0,0,0,280,175.027Zm0,35a17.5,17.5,0,1,1-17.5,17.5A17.243,17.243,0,0,1,280,210.027ZM420,280a52.5,52.5,0,1,0,52.5,52.5A52.766,52.766,0,0,0,420,280Zm0,35a17.5,17.5,0,1,1-17.5,17.5A17.243,17.243,0,0,1,420,315Z" transform="translate(-143.433 206.567) rotate(-30)" fill="green"/>
</svg>
